<svg xmlns="http://www.w3.org/2000/svg" data-name="Layer 1" width="675.67004" height="631.94692" viewBox="0 0 675.67004 631.94692" xmlns:xlink="http://www.w3.org/1999/xlink"><circle cx="278.99773" cy="260.8659" r="215" fill="#2f2e41"/><path d="M726.16271,394.89244a184.74377,184.74377,0,0,1-74.67,148.51c-1.55,1.16-3.13,2.29-4.72,3.39a185.03127,185.03127,0,0,1-211.22,0c-1.59-1.1-3.17-2.23-4.72-3.39a185.01966,185.01966,0,0,1,0-297.02c1.55-1.16,3.13-2.29,4.72-3.39a185.0315,185.0315,0,0,1,211.22,0c1.59,1.1,3.17,2.23,4.72,3.39A184.74369,184.74369,0,0,1,726.16271,394.89244Z" transform="translate(-262.16498 -134.02654)" fill="#2f2e41"/><circle cx="278.99773" cy="260.8659" r="169" fill="#6c63ff"/><path d="M541.60362,226.36486c-2.562,0-5.10815.067-7.64221.1798a168.99467,168.99467,0,0,1-7.15649,337.168c4.87781.42328,9.81116.65223,14.7987.65223a169,169,0,0,0,0-338Z" transform="translate(-262.16498 -134.02654)" opacity="0.2"/><path d="M541.66271,213.89244a5.50968,5.50968,0,0,0-5.5,5.5v24a5.5,5.5,0,0,0,11,0v-24A5.50968,5.50968,0,0,0,541.66271,213.89244Z" transform="translate(-262.16498 -134.02654)" fill="#fff"/><path d="M651.49272,246.38243c-1.55-1.16-3.13-2.29-4.72-3.39a5.49662,5.49662,0,0,0-4.9,2.39l-13.51,19.83a5.49872,5.49872,0,0,0,9.09,6.19l13.51-19.83A5.4644,5.4644,0,0,0,651.49272,246.38243Z" transform="translate(-262.16498 -134.02654)" fill="#fff"/><path d="M712.87273,336.80242a5.4929,5.4929,0,0,0-7.16-3.02l-22.24,9.03a5.49945,5.49945,0,0,0,4.14,10.19l22.24-9.03A5.51241,5.51241,0,0,0,712.87273,336.80242Z" transform="translate(-262.16498 -134.02654)" fill="#fff"/><path d="M453.96269,265.21245l-13.51-19.83a5.49661,5.49661,0,0,0-4.9-2.39c-1.59,1.1-3.17,2.23-4.72,3.39a5.46442,5.46442,0,0,0,.53,5.19l13.51,19.83a5.49872,5.49872,0,0,0,9.09-6.19Z" transform="translate(-262.16498 -134.02654)" fill="#fff"/><path d="M398.85271,342.81243l-22.24-9.03a5.49942,5.49942,0,0,0-4.14,10.18994l22.24,9.03a5.49945,5.49945,0,0,0,4.14-10.19Z" transform="translate(-262.16498 -134.02654)" fill="#fff"/><path d="M541.66271,540.89244a5.50968,5.50968,0,0,0-5.5,5.5v24a5.5,5.5,0,0,0,11,0v-24A5.50968,5.50968,0,0,0,541.66271,540.89244Z" transform="translate(-262.16498 -134.02654)" fill="#fff"/><path d="M650.96269,538.21245l-13.51-19.83a5.49872,5.49872,0,1,0-9.09,6.19l13.51,19.83a5.49657,5.49657,0,0,0,4.9,2.39c1.59-1.1,3.17-2.23,4.72-3.39A5.46436,5.46436,0,0,0,650.96269,538.21245Z" transform="translate(-262.16498 -134.02654)" fill="#fff"/><path d="M709.85271,445.81243l-22.24-9.03a5.49942,5.49942,0,0,0-4.14,10.18994l22.24,9.03a5.49945,5.49945,0,0,0,4.14-10.19Z" transform="translate(-262.16498 -134.02654)" fill="#fff"/><path d="M452.51268,516.93242a5.5,5.5,0,0,0-7.63995,1.45l-13.51,19.83a5.46439,5.46439,0,0,0-.53,5.19c1.55,1.16,3.13,2.29,4.72,3.39a5.49656,5.49656,0,0,0,4.9-2.39l13.51-19.83A5.49838,5.49838,0,0,0,452.51268,516.93242Z" transform="translate(-262.16498 -134.02654)" fill="#fff"/><path d="M401.87273,439.80242a5.4929,5.4929,0,0,0-7.16-3.02l-22.24,9.03a5.49945,5.49945,0,0,0,4.14,10.19l22.24-9.03A5.51241,5.51241,0,0,0,401.87273,439.80242Z" transform="translate(-262.16498 -134.02654)" fill="#fff"/><path d="M548.79894,392.16338a11.5131,11.5131,0,0,1-9.40873,13.26558l-97.59815,16.60128a11.5,11.5,0,0,1-3.85686-22.67432l97.59815-16.60127A11.5131,11.5131,0,0,1,548.79894,392.16338Z" transform="translate(-262.16498 -134.02654)" fill="#3f3d56"/><path d="M651.51837,500.29429a7.5082,7.5082,0,0,1-10.60652.04177l-105.063-104.23895a7.5,7.5,0,0,1,10.56475-10.64828l105.063,104.23895A7.50819,7.50819,0,0,1,651.51837,500.29429Z" transform="translate(-262.16498 -134.02654)" fill="#3f3d56"/><circle cx="278.99773" cy="260.8659" r="13" fill="#ccc"/><path d="M451.61885,169.47127c-19.95483,31.3725-50.40146,52.19272-87.94977,65.87042a7.05892,7.05892,0,0,1-9.88158-1.41838l0,0c-20.3959-27.23248-15.79051-66.15312,11.1278-86.96189a62.06846,62.06846,0,0,1,87.55785,11.87509l.56413.75322A7.05892,7.05892,0,0,1,451.61885,169.47127Z" transform="translate(-262.16498 -134.02654)" fill="#2f2e41"/><path d="M629.85228,158.83648a62.06846,62.06846,0,0,1,87.55785-11.87509c26.91832,20.80877,31.52371,59.72941,11.1278,86.96189l0,0a7.05889,7.05889,0,0,1-9.88155,1.41838c-34.8573-13.34536-63.4422-36.43945-87.94983-65.87042a7.059,7.059,0,0,1-1.41838-9.88157Z" transform="translate(-262.16498 -134.02654)" fill="#2f2e41"/><path d="M621.10592,581.16067a5.50968,5.50968,0,0,0-2.11376,7.48546l31.74188,56.7226a5.5,5.5,0,0,0,9.59921-5.3717l-31.74188-56.7226A5.50968,5.50968,0,0,0,621.10592,581.16067Z" transform="translate(-262.16498 -134.02654)" fill="#e6e6e6"/><path d="M453.734,583.27443,421.99216,639.997a5.5,5.5,0,0,0,9.59921,5.3717l31.74188-56.7226a5.5,5.5,0,1,0-9.59921-5.3717Z" transform="translate(-262.16498 -134.02654)" fill="#e6e6e6"/><circle cx="394.99773" cy="508.8659" r="17" fill="#e6e6e6"/><circle cx="406.99773" cy="73.8659" r="17" fill="#e6e6e6"/><circle cx="277.99773" cy="33.8659" r="17" fill="#e6e6e6"/><circle cx="154.99773" cy="71.8659" r="17" fill="#e6e6e6"/><circle cx="165.99773" cy="508.8659" r="17" fill="#e6e6e6"/></svg>