<svg width="675" height="435" viewBox="0 0 675 435" fill="none" xmlns="http://www.w3.org/2000/svg">
<path d="M657.568 433.048H16.733C12.756 433.043 8.942 431.461 6.13 428.649C3.318 425.837 1.736 422.024 1.731 418.047V22.8949C1.734 20.0876 2.851 17.3962 4.836 15.411C6.821 13.4259 9.51301 12.3091 12.32 12.3057H661.772C664.634 12.3091 667.379 13.4479 669.403 15.4722C671.428 17.4967 672.566 20.2416 672.57 23.1047V418.046C672.565 422.023 670.983 425.837 668.171 428.649C665.358 431.461 661.545 433.043 657.568 433.048Z" fill="black" stroke="#4D4D56" stroke-width="3"/>
<path d="M672.84 23.9502H1V16.5505C1.006 12.4265 2.647 8.47328 5.564 5.55805C8.482 2.64274 12.436 1.00353 16.56 1H657.28C661.403 1.00338 665.358 2.64259 668.275 5.558C671.192 8.47341 672.834 12.4269 672.84 16.5512V23.9502Z" fill="white" stroke="#4D4D56" stroke-width="2"/>
<path d="M30.095 16.7834C32.461 16.7834 34.378 14.8657 34.378 12.5C34.378 10.1343 32.461 8.21657 30.095 8.21657C27.729 8.21657 25.812 10.1343 25.812 12.5C25.812 14.8657 27.729 16.7834 30.095 16.7834Z" fill="black"/>
<path d="M46.354 16.7834C48.719 16.7834 50.637 14.8657 50.637 12.5C50.637 10.1343 48.719 8.21657 46.354 8.21657C43.988 8.21657 42.07 10.1343 42.07 12.5C42.07 14.8657 43.988 16.7834 46.354 16.7834Z" fill="black"/>
<path d="M62.613 16.7834C64.978 16.7834 66.896 14.8657 66.896 12.5C66.896 10.1343 64.978 8.21657 62.613 8.21657C60.247 8.21657 58.329 10.1343 58.329 12.5C58.329 14.8657 60.247 16.7834 62.613 16.7834Z" fill="black"/>
<path d="M324.059 118.954H207.25C205.509 118.954 203.839 118.263 202.607 117.031C201.376 115.8 200.684 114.13 200.684 112.388C200.684 110.647 201.376 108.977 202.607 107.745C203.839 106.514 205.509 105.822 207.25 105.822H324.059C325.8 105.822 327.47 106.514 328.701 107.745C329.933 108.977 330.625 110.647 330.625 112.388C330.625 114.13 329.933 115.8 328.701 117.031C327.47 118.263 325.8 118.954 324.059 118.954Z" fill="#A9A9A9"/>
<path d="M469.205 118.954H352.397C350.655 118.954 348.985 118.263 347.754 117.031C346.522 115.8 345.83 114.13 345.83 112.388C345.83 110.647 346.522 108.977 347.754 107.745C348.985 106.514 350.655 105.822 352.397 105.822H469.205C470.946 105.822 472.616 106.514 473.848 107.745C475.079 108.977 475.771 110.647 475.771 112.388C475.771 114.13 475.079 115.8 473.848 117.031C472.616 118.263 470.946 118.954 469.205 118.954Z" fill="#A9A9A9"/>
<path d="M469.205 143.837H266C264.259 143.837 262.588 143.145 261.357 141.913C260.126 140.682 259.434 139.012 259.434 137.271C259.434 135.529 260.126 133.859 261.357 132.628C262.588 131.396 264.259 130.704 266 130.704H469.205C470.946 130.704 472.616 131.396 473.848 132.628C475.079 133.859 475.771 135.529 475.771 137.271C475.771 139.012 475.079 140.682 473.848 141.913C472.616 143.145 470.946 143.837 469.205 143.837Z" fill="#A9A9A9"/>
<path d="M324.059 93.7267H207.25C205.51 93.7245 203.842 93.0318 202.613 91.8006C201.383 90.5695 200.692 88.9006 200.692 87.1605C200.692 85.4205 201.383 83.7516 202.613 82.5204C203.842 81.2893 205.51 80.5966 207.25 80.5944H324.059C324.921 80.5933 325.776 80.7624 326.574 81.0919C327.371 81.4214 328.096 81.9049 328.707 82.5147C329.317 83.1245 329.802 83.8487 330.132 84.6459C330.463 85.4431 330.633 86.2976 330.633 87.1605C330.633 88.0235 330.463 88.878 330.132 89.6752C329.802 90.4723 329.317 91.1965 328.707 91.8064C328.096 92.4162 327.371 92.8997 326.574 93.2292C325.776 93.5587 324.921 93.7277 324.059 93.7267Z" fill="#A9A9A9"/>
<path d="M388.337 94.0723H355.161C353.42 94.0723 351.75 93.3805 350.518 92.1491C349.287 90.9177 348.595 89.2476 348.595 87.5061C348.595 85.7647 349.287 84.0945 350.518 82.8632C351.75 81.6318 353.42 80.94 355.161 80.94H388.337C390.079 80.94 391.749 81.6318 392.98 82.8632C394.212 84.0945 394.904 85.7647 394.904 87.5061C394.904 89.2476 394.212 90.9177 392.98 92.1491C391.749 93.3805 390.079 94.0723 388.337 94.0723Z" fill="#A9A9A9"/>
<path d="M240.427 143.837H207.25C205.51 143.835 203.842 143.142 202.613 141.911C201.383 140.679 200.692 139.011 200.692 137.271C200.692 135.53 201.383 133.862 202.613 132.63C203.842 131.399 205.51 130.707 207.25 130.704H240.427C241.29 130.703 242.144 130.872 242.942 131.202C243.739 131.531 244.464 132.015 245.075 132.625C245.685 133.235 246.17 133.959 246.5 134.756C246.831 135.553 247.001 136.408 247.001 137.271C247.001 138.133 246.831 138.988 246.5 139.785C246.17 140.582 245.685 141.307 245.075 141.916C244.464 142.526 243.739 143.01 242.942 143.339C242.144 143.669 241.29 143.838 240.427 143.837Z" fill="#A9A9A9"/>
<path d="M324.059 351.954H207.25C205.509 351.954 203.839 351.263 202.607 350.031C201.376 348.8 200.684 347.13 200.684 345.388C200.684 343.647 201.376 341.977 202.607 340.745C203.839 339.514 205.509 338.822 207.25 338.822H324.059C324.921 338.822 325.775 338.992 326.571 339.322C327.368 339.652 328.092 340.136 328.701 340.745C329.311 341.355 329.795 342.079 330.125 342.876C330.455 343.672 330.625 344.526 330.625 345.388C330.625 346.251 330.455 347.104 330.125 347.901C329.795 348.698 329.311 349.422 328.701 350.031C328.092 350.641 327.368 351.125 326.571 351.455C325.775 351.785 324.921 351.954 324.059 351.954Z" fill="#A9A9A9"/>
<path d="M469.205 351.954H352.397C350.655 351.954 348.985 351.263 347.754 350.031C346.522 348.8 345.83 347.13 345.83 345.388C345.83 343.647 346.522 341.977 347.754 340.745C348.985 339.514 350.655 338.822 352.397 338.822H469.205C470.067 338.822 470.921 338.992 471.717 339.322C472.514 339.652 473.238 340.136 473.848 340.745C474.457 341.355 474.941 342.079 475.271 342.876C475.601 343.672 475.771 344.526 475.771 345.388C475.771 346.251 475.601 347.104 475.271 347.901C474.941 348.698 474.457 349.422 473.848 350.031C473.238 350.641 472.514 351.125 471.717 351.455C470.921 351.785 470.067 351.954 469.205 351.954Z" fill="#A9A9A9"/>
<path d="M469.205 376.837H266C264.259 376.837 262.588 376.145 261.357 374.914C260.126 373.682 259.434 372.012 259.434 370.271C259.434 368.529 260.126 366.859 261.357 365.628C262.588 364.396 264.259 363.704 266 363.704H469.205C470.068 363.703 470.922 363.872 471.72 364.202C472.518 364.531 473.242 365.015 473.853 365.625C474.463 366.235 474.948 366.959 475.278 367.756C475.609 368.553 475.779 369.408 475.779 370.271C475.779 371.133 475.609 371.988 475.278 372.785C474.948 373.582 474.463 374.307 473.853 374.916C473.242 375.526 472.518 376.01 471.72 376.339C470.922 376.669 470.068 376.838 469.205 376.837Z" fill="#A9A9A9"/>
<path d="M324.059 326.727H207.25C205.509 326.727 203.839 326.035 202.607 324.803C201.376 323.572 200.684 321.902 200.684 320.161C200.684 318.419 201.376 316.749 202.607 315.518C203.839 314.286 205.509 313.594 207.25 313.594H324.059C325.8 313.594 327.47 314.286 328.701 315.518C329.933 316.749 330.625 318.419 330.625 320.161C330.625 321.902 329.933 323.572 328.701 324.803C327.47 326.035 325.8 326.727 324.059 326.727Z" fill="#A9A9A9"/>
<path d="M388.337 327.072H355.161C353.42 327.072 351.75 326.38 350.518 325.149C349.287 323.918 348.595 322.248 348.595 320.506C348.595 318.765 349.287 317.095 350.518 315.863C351.75 314.632 353.42 313.94 355.161 313.94H388.337C390.079 313.94 391.749 314.632 392.98 315.863C394.212 317.095 394.904 318.765 394.904 320.506C394.904 322.248 394.212 323.918 392.98 325.149C391.749 326.38 390.079 327.072 388.337 327.072Z" fill="#A9A9A9"/>
<path d="M240.427 376.837H207.25C205.509 376.837 203.839 376.145 202.607 374.914C201.376 373.682 200.684 372.012 200.684 370.271C200.684 368.529 201.376 366.859 202.607 365.628C203.839 364.396 205.509 363.704 207.25 363.704H240.427C241.29 363.703 242.144 363.872 242.942 364.202C243.739 364.531 244.464 365.015 245.075 365.625C245.685 366.235 246.17 366.959 246.5 367.756C246.831 368.553 247.001 369.408 247.001 370.271C247.001 371.133 246.831 371.988 246.5 372.785C246.17 373.582 245.685 374.307 245.075 374.916C244.464 375.526 243.739 376.01 242.942 376.339C242.144 376.669 241.29 376.838 240.427 376.837Z" fill="#A9A9A9"/>
<path d="M293.552 281.462C291.073 281.467 288.692 280.493 286.928 278.752L243.02 235.392C242.158 234.541 241.473 233.527 241.006 232.409C240.539 231.292 240.298 230.092 240.298 228.881C240.298 227.669 240.539 226.47 241.006 225.352C241.473 224.234 242.158 223.22 243.02 222.369L286.751 179.185C288.573 177.394 291.027 176.395 293.581 176.403C296.136 176.411 298.584 177.426 300.394 179.228C302.207 181.044 303.224 183.505 303.225 186.071C303.225 188.637 302.207 191.098 300.395 192.914L267.899 225.411C266.886 226.426 266.318 227.801 266.318 229.234C266.318 230.668 266.886 232.043 267.899 233.057L300.218 265.378C301.538 266.695 302.437 268.374 302.802 270.203C303.166 272.032 302.98 273.927 302.266 275.65C301.552 277.372 300.342 278.844 298.791 279.879C297.24 280.914 295.417 281.464 293.552 281.462Z" fill="#A9A9A9"/>
<path d="M363.517 281.462C361.653 281.464 359.829 280.913 358.278 279.879C356.727 278.844 355.517 277.372 354.804 275.65C354.09 273.927 353.903 272.031 354.268 270.203C354.632 268.374 355.531 266.695 356.851 265.378L389.171 233.057C390.183 232.043 390.752 230.668 390.752 229.234C390.752 227.801 390.183 226.426 389.171 225.411L356.675 192.914C355.776 192.016 355.063 190.949 354.577 189.774C354.09 188.6 353.84 187.342 353.84 186.071C353.84 184.8 354.09 183.541 354.577 182.367C355.063 181.193 355.776 180.126 356.675 179.228C358.485 177.426 360.933 176.411 363.488 176.403C366.042 176.395 368.496 177.394 370.318 179.185L414.05 222.369C414.912 223.22 415.596 224.234 416.063 225.352C416.53 226.47 416.771 227.669 416.771 228.881C416.771 230.092 416.53 231.292 416.063 232.409C415.596 233.527 414.912 234.541 414.05 235.392L370.141 278.752C368.377 280.493 365.996 281.467 363.517 281.462Z" fill="#A9A9A9"/>
</svg>
