<svg xmlns="http://www.w3.org/2000/svg" xmlns:xlink="http://www.w3.org/1999/xlink" width="949.85" height="463.64" viewBox="0 0 949.85 463.64"><path d="m0,418.39c0,.94,1.07,1.69,2.41,1.69h945.03c1.33,0,2.41-.75,2.41-1.69s-1.07-1.69-2.41-1.69H2.41c-1.33,0-2.41.75-2.41,1.69Z" fill="#2f2e43" stroke-width="0"/><path d="m789.19,420.78H162.66V17.31c0-9.54,7.76-17.31,17.31-17.31h591.91c9.54,0,17.31,7.76,17.31,17.31v403.47Z" fill="#2f2e41" stroke-width="0"/><path d="m841.34,463.64H108.95c-2.53,0-4.6-1.57-5.29-4.01-.68-2.43.27-4.86,2.43-6.17l57.09-34.83h626.22l.18.11,54.72,34.77c2.11,1.34,3.03,3.76,2.33,6.17-.7,2.4-2.77,3.96-5.27,3.96Z" fill="#dfdfdf" stroke-width="0"/><rect x="179.09" y="25.72" width="592.95" height="368.63" fill="#fff" stroke-width="0"/><polygon points="794.9 441.5 159.09 441.5 190.52 416 764.9 416 794.9 441.5" fill="#2f2e41" stroke-width="0"/><polygon points="626.31 458.64 324.83 458.64 336.26 441.5 614.88 441.5 626.31 458.64" fill="#2f2e41" stroke-width="0"/><path d="m653.28,171.49h-31.41c-2.73,0-4.95-2.22-4.95-4.95s2.22-4.95,4.95-4.95h31.41c2.73,0,4.95,2.22,4.95,4.95s-2.22,4.95-4.95,4.95Z" fill="#dfdfdf" stroke-width="0"/><path d="m689.4,171.49h-14.66c-2.73,0-4.95-2.22-4.95-4.95s2.22-4.95,4.95-4.95h14.66c2.73,0,4.95,2.22,4.95,4.95s-2.22,4.95-4.95,4.95Z" fill="#dfdfdf" stroke-width="0"/><path d="m338.8,175.27h-95.6c-4.88,0-8.85-3.97-8.85-8.85s3.97-8.85,8.85-8.85h95.6c4.88,0,8.85,3.97,8.85,8.85s-3.97,8.85-8.85,8.85Z" fill="#0063cc" stroke-width="0"/><path d="m286.97,198.88h-46.07c-2.97,0-5.4-2.42-5.4-5.4s2.42-5.4,5.4-5.4h46.07c2.97,0,5.4,2.42,5.4,5.4s-2.42,5.4-5.4,5.4Z" fill="#dfdfdf" stroke-width="0"/><path d="m540.95,220.19H239.74c-2.97,0-5.4-2.42-5.4-5.4s2.42-5.4,5.4-5.4h301.21c2.97,0,5.4,2.42,5.4,5.4s-2.42,5.4-5.4,5.4Z" fill="#dfdfdf" stroke-width="0"/><path d="m515.04,234.59H239.74c-2.97,0-5.4-2.42-5.4-5.4s2.42-5.4,5.4-5.4h275.29c2.97,0,5.4,2.42,5.4,5.4s-2.42,5.4-5.4,5.4Z" fill="#dfdfdf" stroke-width="0"/></svg>