<svg width="404" height="252" viewBox="0 0 404 252" fill="none" xmlns="http://www.w3.org/2000/svg">
<path d="M446.517 0.857727C446.431 1.18934 437.813 34.5064 420.493 74.1147C410.33 97.3532 399.208 118.179 387.428 136.008C372.761 158.224 357.052 175.799 340.744 188.253C339.622 189.111 338.511 189.94 337.419 190.739C335.198 192.368 333.043 193.876 330.959 195.264C329.59 193.874 328.214 192.379 326.839 190.782C327.931 189.982 329.036 189.155 330.158 188.297C331.227 187.481 332.29 186.646 333.349 185.785C348.52 173.524 363.137 156.813 376.842 136.053C388.622 118.222 399.744 97.3975 409.907 74.1577C427.23 34.5507 435.848 1.2323 435.931 0.899346L446.517 0.856384V0.857727Z" fill="white"/>
<path d="M467.796 0.769104C467.71 1.10206 459.092 34.4205 441.772 74.0261C431.609 97.2673 420.481 118.09 408.707 135.921C394.04 158.135 378.328 175.712 362.02 188.166C356.171 192.628 350.779 196.299 345.811 199.192C343.659 200.446 341.587 201.554 339.589 202.515C338.118 201.552 336.66 200.449 335.204 199.218C337.252 198.024 339.372 196.7 341.563 195.242C344.689 193.168 347.957 190.824 351.384 188.21C367.691 175.756 383.401 158.181 398.074 135.967C409.848 118.136 420.972 97.3116 431.136 74.0718C448.452 34.4621 457.074 1.14368 457.154 0.813409L467.793 0.769104H467.796Z" fill="white"/>
<path d="M489.073 0.681854C488.986 1.01347 480.368 34.3305 463.048 73.9389C452.885 97.18 441.757 118.003 429.983 135.834C415.316 158.048 399.604 175.623 383.296 188.077C372.225 196.531 362.776 202.144 354.762 205.003C352.738 205.726 350.803 206.274 348.957 206.647C347.335 206.282 345.739 205.742 344.156 205.036C346.088 204.346 348.097 203.496 350.193 202.485C356.808 199.305 364.265 194.528 372.66 188.12C388.967 175.666 404.677 158.089 419.344 135.875C431.124 118.045 442.245 97.2203 452.409 73.9818C469.731 34.3748 478.35 1.05777 478.433 0.726159L489.073 0.681854Z" fill="white"/>
<path d="M510.295 0.594543C510.209 0.926157 501.591 34.2446 484.271 73.8516C474.108 97.0914 462.983 117.916 451.206 135.746C436.536 157.961 420.826 175.537 404.519 187.991C388.071 200.545 375.211 206.835 365.313 207.148C365.086 207.155 364.86 207.159 364.637 207.16L354.051 207.203C354.274 207.203 354.501 207.198 354.727 207.191C364.625 206.877 377.485 200.588 393.933 188.034C410.241 175.58 425.95 158.003 440.62 135.789C452.397 117.959 463.522 97.1343 473.685 73.8945C491.005 34.2875 499.626 0.969119 499.709 0.637506L510.295 0.594543Z" fill="white"/>
<path d="M300.785 207.423L290.276 207.466C289.743 207.467 289.216 207.454 288.701 207.42C271.179 206.282 257.068 184.812 237.534 155.097C223.95 134.436 207.044 108.721 183.223 80.5643C179.772 76.4882 176.114 72.9573 172.271 69.9969C170.806 68.8692 169.317 67.8247 167.808 66.8634C169.818 65.8954 171.815 65.0066 173.798 64.1971C175.352 64.9865 176.882 65.8632 178.391 66.8204C183.884 70.3057 189.049 74.8946 193.806 80.52C217.63 108.678 234.533 134.392 248.12 155.052C266.333 182.766 279.839 203.307 295.786 206.874H295.789C296.944 207.13 298.105 207.301 299.287 207.376C299.772 207.408 300.276 207.425 300.782 207.425L300.785 207.423Z" fill="white"/>
<path d="M322.049 207.335L311.499 207.379C310.966 207.38 310.439 207.364 309.924 207.33C308.733 207.253 307.566 207.082 306.402 206.823C304.786 206.46 303.196 205.923 301.621 205.223C287.674 199.008 275.121 179.901 258.756 155.008C245.173 134.345 228.27 108.632 204.445 80.4729C198.369 73.2956 191.639 67.8058 184.411 64.1393C183.934 63.899 183.458 63.6654 182.979 63.4385C181.892 62.9283 180.794 62.4557 179.677 62.0221C181.603 61.3817 183.52 60.8218 185.417 60.3398C187.072 60.803 188.697 61.3468 190.293 61.9684C191.415 62.4034 192.526 62.88 193.618 63.3928C201.385 67.0446 208.607 72.7747 215.085 80.4286C238.909 108.585 255.812 134.3 269.396 154.961C283.953 177.108 295.501 194.674 307.694 202.658C309.197 203.642 310.71 204.482 312.24 205.165C313.821 205.871 315.419 206.411 317.042 206.777C318.203 207.038 319.379 207.207 320.566 207.285C321.058 207.317 321.552 207.33 322.055 207.33L322.049 207.335Z" fill="white"/>
<path d="M343.34 207.247L332.778 207.29C332.245 207.294 331.718 207.278 331.203 207.245C330.012 207.167 328.839 206.996 327.678 206.737H327.675C326.053 206.372 324.46 205.831 322.879 205.125C321.34 204.437 319.822 203.595 318.31 202.603C316.851 201.646 315.398 200.548 313.949 199.323C303.315 190.335 292.839 174.4 280.035 154.921C266.452 134.26 249.546 108.546 225.724 80.3883C219.247 72.7357 212.025 67.0043 204.258 63.3525C201.599 62.1039 198.858 61.0836 196.029 60.2942C194.389 59.8323 192.716 59.4497 191.022 59.1449C192.859 58.824 194.681 58.5824 196.482 58.4186C198.223 58.5649 199.944 58.7918 201.635 59.0952C206.258 59.9249 210.685 61.3333 214.894 63.3096C222.661 66.96 229.883 72.6914 236.361 80.344C260.185 108.502 277.088 134.216 290.672 154.879C301.773 171.766 311.121 185.99 320.34 195.331C321.745 196.759 323.15 198.071 324.558 199.262C326.014 200.495 327.476 201.596 328.946 202.559C330.453 203.55 331.974 204.393 333.51 205.082C335.091 205.788 336.689 206.328 338.315 206.693C339.476 206.953 340.646 207.122 341.836 207.2C342.328 207.232 342.831 207.249 343.337 207.249L343.34 207.247Z" fill="white"/>
<path d="M364.497 207.159L354.057 207.203C353.524 207.204 352.997 207.188 352.482 207.157C351.291 207.079 350.118 206.909 348.957 206.647C347.335 206.282 345.739 205.742 344.155 205.036C342.616 204.349 341.098 203.504 339.586 202.513C338.115 201.551 336.657 200.447 335.201 199.216C333.784 198.02 332.37 196.699 330.959 195.264C329.589 193.874 328.214 192.378 326.839 190.782C318.929 181.635 310.748 169.199 301.312 154.834C287.728 134.173 270.825 108.457 247 80.3011C240.529 72.6472 233.301 66.9171 225.534 63.2653C218.252 59.8418 210.313 58.126 201.823 58.1622L212.408 58.1193C220.896 58.0844 228.838 59.7988 236.12 63.221C243.887 66.8728 251.109 72.6042 257.586 80.2568C281.411 108.414 298.314 134.129 311.897 154.789C319.733 166.707 326.696 177.299 333.352 185.785C334.722 187.526 336.076 189.182 337.422 190.739C338.812 192.345 340.19 193.847 341.563 195.241C342.98 196.676 344.394 197.996 345.811 199.192C347.266 200.424 348.722 201.525 350.196 202.487C351.708 203.476 353.226 204.319 354.765 205.004C356.346 205.709 357.945 206.248 359.567 206.611C360.722 206.867 361.886 207.038 363.068 207.113C363.538 207.143 364.018 207.159 364.5 207.159H364.497Z" fill="white"/>
<path d="M143.326 58.6336C133.687 59.5049 123.497 62.6076 112.985 67.8825C102.551 73.1171 91.4533 80.653 79.9861 90.2818C60.8237 106.372 40.2293 128.599 18.7626 156.343C-17.7256 203.502 -44.4733 250.968 -44.7383 251.443L-55.3242 251.488C-55.0622 251.014 -28.3086 203.546 8.17666 156.386C29.6433 128.644 50.2407 106.418 69.4002 90.3248C80.8643 80.6973 91.9653 73.1601 102.399 67.9268C114.254 61.9779 125.694 58.7906 136.405 58.451C136.956 58.4349 137.5 58.4241 138.042 58.4228C139.828 58.4161 141.591 58.4845 143.326 58.6336Z" fill="white"/>
<path d="M164.564 58.549C162.763 58.7114 160.941 58.9544 159.104 59.2753C157.264 59.5935 155.404 59.9923 153.531 60.4662C147.271 62.0517 140.829 64.5006 134.264 67.7966C123.827 73.0285 112.726 80.567 101.262 90.1946C82.1027 106.287 61.5083 128.513 40.0416 156.255C3.55342 203.416 -23.1943 250.883 -23.4622 251.357L-34.0988 251.402C-33.8368 250.928 -7.08316 203.459 29.4051 156.3C50.8687 128.556 71.4661 106.33 90.6256 90.2389C102.09 80.6114 113.191 73.0742 123.625 67.8395C132.175 63.5527 140.504 60.6984 148.503 59.3143C150.328 58.9974 152.141 58.7571 153.93 58.5933C155.174 58.4805 156.407 58.404 157.63 58.3651C158.181 58.3476 158.726 58.3382 159.268 58.3369C161.057 58.3302 162.825 58.4 164.567 58.549H164.564Z" fill="white"/>
<path d="M185.846 58.4617C184.048 58.6241 182.226 58.8671 180.389 59.188C178.537 59.5089 176.665 59.9089 174.78 60.3869C172.881 60.8689 170.97 61.4301 169.038 62.0691C167.106 62.7095 165.156 63.4305 163.194 64.2293C160.664 65.2577 158.113 66.419 155.538 67.7092C145.103 72.9439 134.005 80.4811 122.538 90.1086C103.379 106.199 82.7844 128.425 61.3177 156.169C24.8295 203.328 -1.9182 250.797 -2.18612 251.271L-12.8227 251.314C-12.5607 250.84 14.1929 203.373 50.6812 156.214C72.1448 128.47 92.7422 106.244 111.902 90.1529C123.366 80.5227 134.467 72.9882 144.901 67.7536C149.482 65.4564 153.998 63.5701 158.434 62.1027C160.354 61.465 162.256 60.9092 164.141 60.4312C166.028 59.9519 167.898 59.5518 169.746 59.231C171.583 58.9101 173.405 58.6684 175.206 58.5046C176.45 58.3919 177.683 58.3153 178.906 58.2764C179.457 58.2603 180.002 58.2522 180.544 58.2482C182.339 58.2415 184.104 58.3113 185.846 58.463V58.4617Z" fill="white"/>
<path d="M212.406 58.118C211.861 58.1194 211.313 58.1288 210.766 58.1449C209.548 58.1838 208.328 58.2577 207.092 58.3718C205.294 58.5342 203.472 58.7759 201.635 59.0941C199.784 59.4149 197.914 59.815 196.03 60.293C194.133 60.7723 192.219 61.3321 190.29 61.9712C188.346 62.6156 186.385 63.3393 184.411 64.1408C182.416 64.953 180.41 65.8458 178.389 66.8192C177.847 67.081 177.305 67.3482 176.76 67.6207C175.278 68.3658 173.777 69.1566 172.271 69.9943C163.156 75.0424 153.591 81.7606 143.758 90.02C124.598 106.111 104.004 128.337 82.5373 156.081C46.0491 203.24 19.3014 250.706 19.0335 251.181L8.4505 251.226C8.71247 250.752 35.4632 203.284 71.9514 156.124C93.418 128.382 114.012 106.156 133.172 90.063C144.642 80.4355 155.74 72.8983 166.174 67.6637C166.719 67.3911 167.261 67.1239 167.806 66.8621C169.815 65.8942 171.812 65.0054 173.795 64.1958C175.769 63.3916 177.731 62.6666 179.675 62.0235C181.601 61.3831 183.518 60.8233 185.414 60.3413C187.298 59.8634 189.165 59.4633 191.02 59.1424C192.856 58.8215 194.678 58.5799 196.479 58.4161C197.724 58.3033 198.956 58.2268 200.18 58.1878C200.724 58.1717 201.272 58.161 201.817 58.1596L212.403 58.1167L212.406 58.118Z" fill="white"/>
</svg>
